<svg width="150" height="31" viewBox="0 0 150 31" fill="none" xmlns="http://www.w3.org/2000/svg">
<path d="M0.254257 29.9107V10.3036H4.75426V12.9955H4.79444C6.45515 11.0134 8.49087 10.0223 10.9016 10.0223C13.6605 10.0223 15.6159 11.1071 16.7677 13.2768H16.848C18.5355 11.1071 20.8793 10.0223 23.8793 10.0223C26.0757 10.0223 27.7699 10.7321 28.9619 12.1518C30.1538 13.5714 30.7498 15.7143 30.7498 18.5803V29.9107H26.2498V19.7053C26.2498 15.9553 24.9775 14.0803 22.4328 14.0803C21.1203 14.0803 20.0288 14.6227 19.1583 15.7076C18.2877 16.7924 17.8525 18.2723 17.8525 20.1473V29.9107H13.3525V19.7053C13.3525 15.9553 12.0534 14.0803 9.45515 14.0803C8.06229 14.0803 6.9306 14.6227 6.06006 15.7076C5.18953 16.7924 4.75426 18.2723 4.75426 20.1473V29.9107H0.254257Z" fill="#16161E"/>
<path d="M36.5756 29.9107V10.3036H41.0756V29.9107H36.5756Z" fill="#16161E"/>
<path d="M45.3747 29.9107L52.2854 19.9062L45.4149 10.3036H50.6381L54.7765 16.4911H54.8569L59.0756 10.3036H64.2587L57.4283 19.9464L64.3792 29.9107H59.3569L54.897 23.7232H54.8569L50.3569 29.9107H45.3747Z" fill="#16161E"/>
<path d="M68.3972 29.9107V10.3036H72.8972V13.2366H72.9775C74.5847 11.0937 76.607 10.0223 79.0445 10.0223H79.607V15.0446C78.9106 14.9911 78.4552 14.9643 78.2409 14.9643C76.5802 14.9643 75.2744 15.4933 74.3235 16.5513C73.3726 17.6094 72.8972 18.9687 72.8972 20.6294V29.9107H68.3972Z" fill="#16161E"/>
<path d="M91.6203 30.2321C88.8614 30.2321 86.5913 29.308 84.81 27.4598C83.0288 25.6116 82.1382 23.1875 82.1382 20.1875C82.1382 17.2411 83.0355 14.8102 84.8301 12.8951C86.6248 10.9799 88.8748 10.0223 91.5801 10.0223C94.2051 10.0223 96.2275 10.9196 97.6471 12.7143L97.7275 12.6741V10.3036H102.227V29.9107H97.9283V27.3393L97.848 27.2991C96.4016 29.2544 94.3257 30.2321 91.6203 30.2321ZM92.3435 26.1339C93.8971 26.1339 95.2163 25.5848 96.3011 24.4866C97.3859 23.3884 97.9283 21.9687 97.9283 20.2277C97.9283 18.4866 97.3993 17.0268 96.3413 15.8482C95.2833 14.6696 93.9507 14.0803 92.3435 14.0803C90.7364 14.0803 89.3971 14.6428 88.3257 15.7678C87.2542 16.8928 86.7185 18.3794 86.7185 20.2277C86.7185 21.9687 87.2408 23.3884 88.2855 24.4866C89.3301 25.5848 90.6828 26.1339 92.3435 26.1339Z" fill="#16161E"/>
<path d="M107.893 29.9107V10.3036H112.393V12.9955H112.473C114.134 11.0134 116.317 10.0223 119.022 10.0223C121.272 10.0223 123.033 10.7053 124.306 12.0714C125.578 13.4375 126.214 15.5402 126.214 18.3794V29.9107H121.714V19.5446C121.714 17.5625 121.359 16.1562 120.649 15.3259C119.939 14.4955 118.875 14.0803 117.455 14.0803C115.902 14.0803 114.669 14.6027 113.759 15.6473C112.848 16.6919 112.393 18.1652 112.393 20.0669V29.9107H107.893Z" fill="#16161E"/>
<path d="M131.719 29.9107V0.339262H136.218V19.3437L136.299 19.3839L144.254 10.3035H149.598L142.527 18.1786L149.718 29.9107H144.656L139.393 21.2723L136.218 24.7277V29.9107H131.719Z" fill="#16161E"/>
</svg>
